<?xml version="1.0" standalone="no"?>
<!DOCTYPE svg PUBLIC "-//W3C//DTD SVG 20010904//EN"
 "http://www.w3.org/TR/2001/REC-SVG-20010904/DTD/svg10.dtd">
<svg version="1.0" xmlns="http://www.w3.org/2000/svg"
 width="200.000000pt" height="200.000000pt" viewBox="0 0 200.000000 200.000000"
 preserveAspectRatio="xMidYMid meet">
<metadata>
Created by potrace 1.11, written by Peter Selinger 2001-2013
</metadata>
<g transform="translate(0.000000,200.000000) scale(0.100000,-0.100000)"
fill="#000000" stroke="none">
<path d="M801 1758 c-6 -36 -11 -82 -11 -104 0 -28 -6 -43 -20 -52 -11 -7 -20
-23 -20 -37 0 -14 -5 -25 -10 -25 -18 0 -101 -82 -126 -126 -46 -78 -59 -139
-59 -279 1 -184 41 -324 127 -436 34 -44 35 -46 16 -58 -10 -6 -24 -23 -30
-36 -6 -14 -16 -25 -22 -25 -6 0 -35 -12 -65 -26 l-55 -25 -53 22 c-100 40
-241 8 -324 -74 -67 -66 -102 -178 -85 -272 l7 -35 226 0 225 0 -4 80 c-2 44
0 80 5 80 4 0 19 -11 32 -25 21 -20 25 -34 25 -80 l0 -55 680 0 680 0 0 184 0
183 -62 28 c-128 58 -278 40 -369 -42 l-38 -34 -20 45 c-23 52 -65 82 -128 92
-29 4 -44 12 -48 25 -8 23 -46 44 -98 53 l-38 7 20 27 c53 75 56 94 54 302 -3
277 -27 381 -113 474 -32 35 -56 50 -95 62 -29 8 -56 21 -58 29 -3 7 -16 15
-28 17 -17 2 -28 20 -53 90 -42 119 -51 125 -65 46z m63 -75 c26 -70 21 -83
-32 -83 l-34 0 7 88 c4 48 10 91 13 96 5 10 7 5 46 -101z m-126 -270 c4 -26
-22 -46 -48 -38 -26 8 -26 30 2 49 27 20 42 16 46 -11z m-68 -85 c0 -7 -14
-21 -30 -30 -33 -19 -38 -13 -14 20 16 24 44 30 44 10z m326 -5 c20 -27 17
-51 -11 -78 -47 -48 -119 -20 -117 45 1 44 8 50 64 50 37 0 54 -5 64 -17z
m-204 -29 c26 -56 -44 -114 -97 -80 -22 14 -26 24 -23 54 2 29 8 38 28 43 54
15 80 10 92 -17z m-117 -207 c8 -53 5 -60 -18 -51 -25 9 -47 50 -54 99 l-6 46
36 -23 c30 -19 36 -30 42 -71z"/>
<path d="M930 1285 c0 -8 5 -15 10 -15 6 0 10 7 10 15 0 8 -4 15 -10 15 -5 0
-10 -7 -10 -15z"/>
<path d="M730 1265 c0 -8 5 -15 10 -15 6 0 10 7 10 15 0 8 -4 15 -10 15 -5 0
-10 -7 -10 -15z"/>
</g>
</svg>
